<?xml version="1.0" encoding="UTF-8" standalone="no"?>
<svg
   xmlns:dc="http://purl.org/dc/elements/1.1/"
   xmlns:cc="http://creativecommons.org/ns#"
   xmlns:rdf="http://www.w3.org/1999/02/22-rdf-syntax-ns#"
   xmlns:svg="http://www.w3.org/2000/svg"
   xmlns="http://www.w3.org/2000/svg"
   xmlns:sodipodi="http://sodipodi.sourceforge.net/DTD/sodipodi-0.dtd"
   xmlns:inkscape="http://www.inkscape.org/namespaces/inkscape"
   width="2.7354376in"
   height="5.5450196in"
   viewBox="0 0 69.480116 140.8435"
   version="1.1"
   id="svg8"
   inkscape:version="1.0.2 (1.0.2+r75+1)"
   sodipodi:docname="luthier_cam_template.svg">
  <defs
     id="defs2" />
  <sodipodi:namedview
     id="base"
     pagecolor="#ffffff"
     bordercolor="#666666"
     borderopacity="1.0"
     inkscape:pageopacity="0.0"
     inkscape:pageshadow="2"
     inkscape:zoom="0.7"
     inkscape:cx="219.92018"
     inkscape:cy="147.69406"
     inkscape:document-units="mm"
     inkscape:current-layer="layer1"
     showgrid="false"
     units="in"
     inkscape:window-width="1920"
     inkscape:window-height="1023"
     inkscape:window-x="0"
     inkscape:window-y="0"
     inkscape:window-maximized="1"
     inkscape:document-rotation="0"
     fit-margin-top="0.5"
     fit-margin-left="0.5"
     fit-margin-right="0.5"
     fit-margin-bottom="0.5">
    <inkscape:grid
       type="xygrid"
       id="grid815"
       units="mm"
       spacingx="1"
       spacingy="1"
       originx="-65.771527"
       originy="-92.748024" />
  </sodipodi:namedview>
  <metadata
     id="metadata5">
    <rdf:RDF>
      <cc:Work
         rdf:about="">
        <dc:format>image/svg+xml</dc:format>
        <dc:type
           rdf:resource="http://purl.org/dc/dcmitype/StillImage" />
        <dc:title></dc:title>
      </cc:Work>
    </rdf:RDF>
  </metadata>
  <g
     inkscape:label="Layer 1"
     inkscape:groupmode="layer"
     id="layer1"
     transform="translate(-65.771529,-63.408471)">
    <g
       id="g848"
       transform="matrix(0.26458333,0,0,0.26458333,-4.5812078,-41.551893)"
       style="stroke-width:1.00157;stroke-miterlimit:4;stroke-dasharray:none" />
    <path
       id="path2605"
       style="fill:none;stroke:#000000;stroke-width:0.264583px;stroke-linecap:butt;stroke-linejoin:miter;stroke-opacity:1"
       d="m 80.178883,108.69986 26.706547,73.37565 C 111.95353,196 122.41935,193 122.41935,182.00001 m 0,-85.659453 V 182 M 103.36879,94.973105 v 6.350005 m -3.175,-3.175005 h 6.35 m 15.87556,-1.807546 c 2.6e-4,-1.86115 -0.27236,-3.739573 -0.81882,-5.561256 -0.54646,-1.821685 -1.36673,-3.586633 -2.44127,-5.216821 -1.07455,-1.630185 -2.40337,-3.125613 -3.94113,-4.412147 -1.53775,-1.286533 -3.28445,-2.364179 -5.17396,-3.174862 -1.88951,-0.810686 -3.92183,-1.354415 -6.01565,-1.593958 -2.09381,-0.239546 -4.249109,-0.174908 -6.374348,0.206242 -2.125239,0.381149 -4.220416,1.078807 -6.192295,2.077535 -1.971879,0.998728 -3.820459,2.298528 -5.459725,3.85721 -1.639268,1.558684 -3.069219,3.37625 -4.217376,5.385273 -1.148157,2.009026 -2.014519,4.20951 -2.548572,6.512462 -0.534057,2.302955 -0.735807,4.708377 -0.582507,7.120293 0.153297,2.41191 0.661643,4.83031 1.525188,7.15933" />
  </g>
</svg>
